<?xml version="1.0" encoding="UTF-8" standalone="no"?>
<svg width="851px" height="203px" viewBox="0 0 851 203" version="1.1" xmlns="http://www.w3.org/2000/svg" xmlns:xlink="http://www.w3.org/1999/xlink" xmlns:sketch="http://www.bohemiancoding.com/sketch/ns">
    <!-- Generator: Sketch 3.3.3 (12081) - http://www.bohemiancoding.com/sketch -->
    <title>STRIDE</title>
    <desc>Created with Sketch.</desc>
    <defs>
        <linearGradient x1="50%" y1="0%" x2="50%" y2="100%" id="linearGradient-1">
            <stop stop-color="#61FBFB" offset="0%"></stop>
            <stop stop-color="#1CF7C0" offset="100%"></stop>
        </linearGradient>
        <filter x="-50%" y="-50%" width="200%" height="200%" filterUnits="objectBoundingBox" id="filter-2">
            <feOffset dx="0" dy="17" in="SourceAlpha" result="shadowOffsetOuter1"></feOffset>
            <feGaussianBlur stdDeviation="5.5" in="shadowOffsetOuter1" result="shadowBlurOuter1"></feGaussianBlur>
            <feColorMatrix values="0 0 0 0 0   0 0 0 0 0   0 0 0 0 0  0 0 0 0.369378397 0" in="shadowBlurOuter1" type="matrix" result="shadowMatrixOuter1"></feColorMatrix>
            <feMerge>
                <feMergeNode in="shadowMatrixOuter1"></feMergeNode>
                <feMergeNode in="SourceGraphic"></feMergeNode>
            </feMerge>
        </filter>
        <path d="M159.42,47.5544322 C159.42,37.4744322 155.388,27.6824322 148.188,20.4824322 L147.324,19.6184322 C140.124,12.9944322 130.908,9.25043217 121.116,9.25043217 L55.164,9.25043217 C45.372,9.25043217 36.156,12.9944322 28.956,19.6184322 L28.092,20.4824322 C20.892,27.9704322 16.86,37.4744322 16.86,47.8424322 C16.86,79.8104322 47.388,88.7384322 86.556,93.6344322 C109.02,99.1064322 153.084,95.3624322 153.084,131.938432 C153.084,148.930432 139.26,162.754432 122.556,162.754432 L53.148,162.754432 C45.084,162.754432 37.308,159.586432 31.548,153.826432 L30.684,152.674432 C25.5,146.914432 22.62,139.714432 22.62,131.938432 C22.62,129.922432 20.892,128.194432 18.588,128.194432 C16.572,128.194432 14.844,129.922432 14.844,131.938432 L14.844,133.378432 C15.132,142.594432 18.876,151.522432 25.212,158.146432 L26.076,159.298432 C33.276,166.498432 43.068,170.530432 53.148,170.530432 L122.556,170.530432 C143.292,170.530432 160.86,153.250432 160.86,131.938432 C160.86,63.3944322 24.636,110.338432 24.636,47.8424322 C24.636,39.4904322 27.804,31.7144322 33.564,25.9544322 L36.156,23.6504322 C41.628,19.3304322 48.252,17.0264322 55.164,17.0264322 L121.116,17.0264322 C128.028,17.0264322 134.652,19.3304322 139.836,23.6504322 L142.716,25.9544322 C148.476,31.7144322 151.644,39.4904322 151.644,47.8424322 C151.644,49.8584322 153.372,51.5864322 155.676,51.5864322 C157.692,51.5864322 159.42,49.8584322 159.42,47.8424322 L159.42,47.5544322 Z M249.564,17.3144322 L312.06,17.3144322 C314.076,17.3144322 315.804,15.5864322 315.804,13.2824322 C315.804,11.2664322 314.076,9.53843217 312.06,9.53843217 L179.292,9.53843217 C177.276,9.53843217 175.548,11.2664322 175.548,13.2824322 C175.548,15.5864322 177.276,17.3144322 179.292,17.3144322 L241.788,17.3144322 L241.788,166.786432 C241.788,168.802432 243.516,170.530432 245.82,170.530432 C247.836,170.530432 249.564,168.802432 249.564,166.786432 L249.564,17.3144322 Z M335.1,19.0424322 C329.052,25.0904322 325.596,33.4424322 325.596,42.0824322 L325.596,166.786432 C325.596,168.802432 327.324,170.530432 329.34,170.530432 C331.644,170.530432 333.372,168.802432 333.372,166.786432 L333.372,113.218432 L402.204,113.218432 L458.364,169.378432 C458.94,170.242432 460.092,170.530432 460.956,170.530432 C463.26,170.530432 464.988,168.802432 464.988,166.786432 C464.988,165.634432 464.412,164.770432 463.836,163.906432 L413.724,113.794432 L420.924,112.930432 C446.844,109.762432 466.428,87.0104322 466.428,61.3784322 C466.428,33.1544322 442.812,9.53843217 414.588,9.53843217 L358.14,9.53843217 C349.788,9.53843217 342.012,12.7064322 335.964,18.1784322 L335.1,19.0424322 Z M410.844,105.442432 L333.372,105.442432 L333.372,42.0824322 C333.372,35.4584322 335.964,29.1224322 340.572,24.5144322 L343.164,21.9224322 L343.164,22.2104322 C347.484,19.0424322 352.668,17.3144322 358.14,17.3144322 L414.588,17.3144322 C437.916,17.3144322 458.652,36.8984322 458.652,61.3784322 C458.652,85.8584322 437.916,105.442432 414.588,105.442432 L410.844,105.442432 Z M503.292,13.2824322 C503.292,11.2664322 501.564,9.53843217 499.26,9.53843217 C497.244,9.53843217 495.516,11.2664322 495.516,13.2824322 L495.516,166.786432 C495.516,168.802432 497.244,170.530432 499.26,170.530432 C501.564,170.530432 503.292,168.802432 503.292,166.786432 L503.292,13.2824322 Z M553.404,161.890432 C559.452,167.362432 567.228,170.530432 575.58,170.530432 L615.612,170.530432 C652.764,170.530432 683.292,139.714432 683.292,102.850432 L683.292,77.2184322 C683.292,40.6424322 652.764,9.53843217 615.612,9.53843217 L575.58,9.53843217 C567.228,9.53843217 559.452,12.7064322 553.404,18.1784322 L552.54,19.0424322 C546.492,25.0904322 543.036,33.4424322 543.036,42.0824322 L543.036,137.986432 C543.036,146.626432 546.492,154.978432 552.54,161.026432 L553.404,161.890432 Z M560.604,158.146432 L558.012,155.554432 C553.404,150.946432 550.812,144.610432 550.812,137.986432 L550.812,42.0824322 C550.812,35.4584322 553.404,29.1224322 558.012,24.5144322 L560.604,21.9224322 L560.604,22.2104322 C564.924,19.0424322 570.108,17.3144322 575.58,17.3144322 L615.612,17.3144322 C648.156,17.3144322 675.804,44.0984322 675.804,77.2184322 L675.804,102.850432 C675.804,135.970432 648.156,162.754432 615.612,162.754432 L575.58,162.754432 C570.108,162.754432 564.924,161.026432 560.604,157.858432 L560.604,158.146432 Z M775.74,9.53843217 C738.588,9.53843217 708.06,40.6424322 708.06,77.2184322 L708.06,102.850432 C708.06,139.714432 738.876,170.530432 775.74,170.530432 L832.476,170.530432 C834.78,170.530432 836.508,168.802432 836.508,166.786432 C836.508,164.482432 834.78,162.754432 832.476,162.754432 L775.74,162.754432 C742.908,162.754432 715.836,135.682432 715.836,102.850432 L715.836,93.9224322 L822.396,93.9224322 C824.412,93.9224322 826.14,92.1944322 826.14,89.8904322 C826.14,87.8744322 824.412,86.1464322 822.396,86.1464322 L715.836,86.1464322 L715.836,77.2184322 C715.836,44.3864322 742.908,17.3144322 775.74,17.3144322 L832.476,17.3144322 C834.78,17.3144322 836.508,15.5864322 836.508,13.2824322 C836.508,11.2664322 834.78,9.53843217 832.476,9.53843217 L775.74,9.53843217 Z" id="path-3"></path>
    </defs>
    <g id="Page-1" stroke="none" stroke-width="1" fill="none" fill-rule="evenodd" sketch:type="MSPage">
        <g id="STRIDE" filter="url(#filter-2)">
            <use stroke="url(#linearGradient-1)" stroke-width="18" fill="#000000" fill-rule="evenodd" sketch:type="MSShapeGroup" xlink:href="#path-3"></use>
            <use stroke="#FFFFFF" stroke-width="5" fill="none" xlink:href="#path-3"></use>
        </g>
    </g>
</svg>